<?xml version="1.0"?>
<svg xmlns="http://www.w3.org/2000/svg" xmlns:xlink="http://www.w3.org/1999/xlink" viewBox="0 0 24 24"><defs><linearGradient gradientUnits="userSpaceOnUse" id="a" x1="-0.51078" x2="19.2875" y1="3.48484" y2="12.71693"><stop offset="0" stop-color="#fff" stop-opacity="0.2"/><stop offset="1" stop-color="#fff" stop-opacity="0"/></linearGradient></defs><title/><path d="M23.93555,2.25488A.50042.50042,0,0,0,23.5,2H15a.49785.49785,0,0,0-.42871.24316L12,6.52832,9.42871,2.24316A.49785.49785,0,0,0,9,2H.5a.50013.50013,0,0,0-.42773.75879l11.5,19a.49984.49984,0,0,0,.85546,0l11.5-19A.49781.49781,0,0,0,23.93555,2.25488Z"/><path d="M11.57129,7.75684a.51827.51827,0,0,0,.85742,0L15.2832,3h2.80585L12,12.56836,5.911,3H8.7168Z" fill="#0288d1"/><path d="M12,20.53418,1.38672,3H4.7254l6.85272,10.76855a.50022.50022,0,0,0,.84376,0L19.2746,3h3.33868Z" fill="#00897b"/><path d="M23.93555,2.25488A.50042.50042,0,0,0,23.5,2H15a.49785.49785,0,0,0-.42871.24316L12,6.52832,9.42871,2.24316A.49785.49785,0,0,0,9,2H.5a.50013.50013,0,0,0-.42773.75879l11.5,19a.49984.49984,0,0,0,.85546,0l11.5-19A.49781.49781,0,0,0,23.93555,2.25488Z" fill="url(#a)"/></svg>
